<svg version="1.1" viewBox="0.0 0.0 751.0918635170603 749.4619422572179" fill="none" stroke="none" stroke-linecap="square" stroke-miterlimit="10" xmlns:xlink="http://www.w3.org/1999/xlink" xmlns="http://www.w3.org/2000/svg"><clipPath id="p.0"><path d="m0 0l751.09186 0l0 749.4619l-751.09186 0l0 -749.4619z" clip-rule="nonzero"/></clipPath><g clip-path="url(#p.0)"><path fill="#000000" fill-opacity="0.0" d="m0 0l751.09186 0l0 749.4619l-751.09186 0z" fill-rule="evenodd"/><path fill="#66b3b3" d="m0.0131233595 -5.2493436E-7l751.0866 0l0 749.4488l-751.0866 0z" fill-rule="evenodd"/><path fill="#000000" fill-opacity="0.0" d="m186.61679 41.833332l377.85825 0l0 665.7953l-377.85825 0z" fill-rule="evenodd"/><path fill="#000000" d="m516.44495 183.67708l0 249.73439q0 62.234375 -38.93753 98.43747q-38.921875 36.1875 -106.375 36.1875q-66.40625 0 -105.46875 -35.15625q-39.0625 -35.15622 -39.84375 -96.609344l0 -252.59377l78.125 0l0 250.25002q0 37.234375 17.84375 54.296875q17.84375 17.0625 49.34375 17.0625q65.890625 0 66.9375 -69.28125l0 -252.32814l78.37503 0z" fill-rule="nonzero"/></g></svg>